<?xml version="1.0" encoding="UTF-8" standalone="no"?>
<svg
   xmlns:dc="http://purl.org/dc/elements/1.1/"
   xmlns:cc="http://creativecommons.org/ns#"
   xmlns:rdf="http://www.w3.org/1999/02/22-rdf-syntax-ns#"
   xmlns:svg="http://www.w3.org/2000/svg"
   xmlns="http://www.w3.org/2000/svg"
   xmlns:sodipodi="http://sodipodi.sourceforge.net/DTD/sodipodi-0.dtd"
   xmlns:inkscape="http://www.inkscape.org/namespaces/inkscape"
   id="Layer_1"
   viewBox="0 0 1458.8 347"
   version="1.1"
   inkscape:version="0.91 r13725"
   sodipodi:docname="outvio-logo.svg"
   width="1458.8"
   height="347">
  <metadata
     id="metadata17">
    <rdf:RDF>
      <cc:Work
         rdf:about="">
        <dc:format>image/svg+xml</dc:format>
        <dc:type
           rdf:resource="http://purl.org/dc/dcmitype/StillImage" />
        <dc:title></dc:title>
      </cc:Work>
    </rdf:RDF>
  </metadata>
  <defs
     id="defs15" />
  <sodipodi:namedview
     pagecolor="#cccccc"
     bordercolor="#666666"
     borderopacity="1"
     objecttolerance="10"
     gridtolerance="10"
     guidetolerance="10"
     inkscape:pageopacity="0"
     inkscape:pageshadow="2"
     inkscape:window-width="1436"
     inkscape:window-height="855"
     id="namedview13"
     showgrid="false"
     fit-margin-top="0"
     fit-margin-left="0"
     fit-margin-right="0"
     fit-margin-bottom="0"
     inkscape:zoom="0.69303537"
     inkscape:cx="729.4"
     inkscape:cy="173.5"
     inkscape:window-x="4"
     inkscape:window-y="1"
     inkscape:window-maximized="1"
     inkscape:current-layer="layer1" />
  <style
     id="style3">.st0{fill:#fff}</style>
  <g
     inkscape:groupmode="layer"
     id="layer1"
     inkscape:label="Logo">
    <path
       class="st0"
       d="m 129.1,0 11.6,0 c 1.3,0 2.3,0.3 3.1,1 0.8,0.7 1.4,1.5 1.8,2.5 L 176,79.3 c 0.7,1.7 1.3,3.6 1.9,5.6 0.6,2 1.1,4.1 1.7,6.2 0.5,-2.1 0.9,-4.2 1.5,-6.2 0.5,-2 1.1,-3.8 1.8,-5.6 L 213.1,3.5 C 213.4,2.7 214,1.9 214.9,1.1 215.7,0.4 216.8,0 218,0 l 11.7,0 -43.8,107.5 -13.1,0 L 129.1,0 Z m 102.8,347 -11.6,0 c -1.3,0 -2.3,-0.3 -3.1,-1 -0.8,-0.7 -1.4,-1.5 -1.8,-2.5 L 185,267.7 c -0.7,-1.7 -1.3,-3.6 -1.9,-5.5 -0.6,-2 -1.1,-4.1 -1.7,-6.2 -0.5,2.2 -0.9,4.2 -1.5,6.2 -0.5,2 -1.1,3.8 -1.8,5.5 l -30.2,75.8 c -0.3,0.8 -0.9,1.6 -1.8,2.4 -0.8,0.7 -1.9,1.1 -3.1,1.1 l -11.9,0 43.8,-107.5 13.2,0 43.8,107.5 z M 85,329 76.8,320.8 c -0.9,-0.9 -1.4,-1.9 -1.5,-2.9 -0.1,-1 0.1,-2 0.5,-3 l 32.1,-75.1 c 0.7,-1.7 1.6,-3.5 2.6,-5.3 1,-1.8 2.1,-3.7 3.2,-5.6 -1.8,1.2 -3.7,2.3 -5.4,3.4 -1.7,1.1 -3.5,1.9 -5.2,2.6 l -75,32.2 c -0.8,0.4 -1.8,0.5 -2.9,0.4 -1.1,-0.1 -2.1,-0.6 -3,-1.5 l -8.3,-8.3 107,-45 9.3,9.3 L 85,329 Z M 0,222.9 0,211.3 c 0,-1.3 0.3,-2.3 1,-3.2 0.7,-0.8 1.5,-1.4 2.5,-1.8 l 75.8,-30.4 c 1.7,-0.7 3.6,-1.3 5.6,-1.9 2,-0.6 4.1,-1.1 6.2,-1.7 -2.1,-0.5 -4.2,-0.9 -6.2,-1.5 -2,-0.5 -3.8,-1.1 -5.6,-1.8 L 3.5,138.8 C 2.7,138.5 1.9,137.9 1.1,137 0.4,136.2 0,135.1 0,133.9 l 0,-11.7 107.5,43.8 0,13.1 L 0,222.9 Z M 14.9,89.1 23.1,80.9 c 1,-1 2,-1.5 3,-1.6 1,-0.1 2,0.1 3,0.5 l 75.1,32.1 c 1.7,0.7 3.5,1.6 5.3,2.6 1.8,1 3.7,2.1 5.6,3.2 -1.2,-1.8 -2.3,-3.7 -3.4,-5.4 -1,-1.8 -1.9,-3.5 -2.6,-5.2 l -32.2,-75 c -0.4,-0.8 -0.5,-1.8 -0.4,-2.9 0.1,-1.1 0.6,-2.1 1.5,-3 l 8.3,-8.3 45,107 -9.3,9.3 L 14.9,89.1 Z m 345,33 0,11.6 c 0,1.3 -0.3,2.3 -1,3.1 -0.7,0.8 -1.5,1.4 -2.5,1.8 L 280.6,169 c -1.7,0.7 -3.6,1.3 -5.6,1.9 -2,0.6 -4.1,1.1 -6.2,1.7 2.1,0.5 4.2,0.9 6.2,1.5 2,0.5 3.8,1.1 5.6,1.8 l 75.8,30.2 c 0.8,0.3 1.6,0.9 2.4,1.8 0.7,0.8 1.1,1.9 1.1,3.1 l 0,11.7 -107.5,-43.8 0,-13 107.5,-43.8 z m -87,-104.1 8.2,8.2 c 0.9,0.9 1.4,1.9 1.5,2.9 0.1,1 -0.1,2 -0.5,3 L 250,107.2 c -0.7,1.7 -1.6,3.5 -2.6,5.3 -1,1.8 -2.1,3.7 -3.2,5.6 1.8,-1.2 3.7,-2.3 5.4,-3.4 1.8,-1 3.5,-1.9 5.2,-2.6 l 75,-32.2 c 0.8,-0.4 1.8,-0.5 2.9,-0.4 1.1,0.1 2.1,0.6 3,1.5 l 8.3,8.3 -107,45 -9.3,-9.3 45.2,-107 z m 73.1,238.9 -8.2,8.2 c -0.9,0.9 -1.9,1.4 -2.9,1.5 -1,0.1 -2,-0.1 -3,-0.5 L 256.8,234 c -1.7,-0.7 -3.5,-1.6 -5.3,-2.6 -1.8,-1 -3.7,-2.1 -5.6,-3.2 1.2,1.8 2.3,3.7 3.4,5.4 1.1,1.7 1.9,3.5 2.6,5.2 l 32.2,75 c 0.4,0.8 0.5,1.8 0.4,2.9 -0.1,1.1 -0.6,2.1 -1.5,3 l -8.3,8.3 -45,-107 9.3,-9.3 107,45.2 z M 170.3,172.2 c 0,-1.3 0.2,-2.5 0.7,-3.7 0.5,-1.1 1.1,-2.1 2,-3 0.8,-0.8 1.8,-1.5 3,-2 1.1,-0.5 2.4,-0.8 3.7,-0.8 1.3,0 2.5,0.3 3.7,0.8 1.1,0.5 2.1,1.2 3,2 0.8,0.9 1.5,1.9 2,3 0.5,1.2 0.7,2.4 0.7,3.7 0,1.3 -0.2,2.6 -0.7,3.7 -0.5,1.1 -1.1,2.1 -2,3 -0.9,0.9 -1.9,1.5 -3,2 -1.2,0.5 -2.4,0.7 -3.7,0.7 -1.3,0 -2.5,-0.2 -3.7,-0.7 -1.2,-0.5 -2.1,-1.1 -3,-2 -0.8,-0.8 -1.5,-1.8 -2,-3 -0.5,-1.1 -0.7,-2.3 -0.7,-3.7 z"
       id="path5"
       inkscape:connector-curvature="0"
       style="fill:#ffffff" />
  </g>
  <g
     inkscape:groupmode="layer"
     id="layer2"
     inkscape:label="Title">
    <g
       style=""
       id="g7"
       transform="translate(-26.9,-14.1)">
      <path
         class="st0"
         d="m 562.9,119.9 c 13.7,0 26.1,2.3 37.1,6.8 11,4.6 20.4,11 28.1,19.4 7.7,8.4 13.6,18.5 17.8,30.4 4.1,11.9 6.2,25.2 6.2,39.9 0,14.8 -2.1,28.1 -6.2,40 -4.1,11.8 -10.1,22 -17.8,30.3 -7.7,8.4 -17.1,14.8 -28.1,19.3 -11,4.5 -23.4,6.8 -37.1,6.8 -13.7,0 -26.1,-2.3 -37.1,-6.8 -11,-4.5 -20.4,-10.9 -28.2,-19.3 -7.8,-8.4 -13.8,-18.5 -17.9,-30.3 -4.2,-11.8 -6.3,-25.2 -6.3,-40 0,-14.7 2.1,-28 6.3,-39.9 4.2,-11.9 10.2,-22 17.9,-30.4 7.8,-8.4 17.2,-14.9 28.2,-19.4 11.1,-4.5 23.4,-6.8 37.1,-6.8 z m 0,167.2 c 18.5,0 32.3,-6.2 41.4,-18.6 9.1,-12.4 13.7,-29.7 13.7,-51.9 0,-22.3 -4.6,-39.7 -13.7,-52.2 -9.1,-12.5 -22.9,-18.7 -41.4,-18.7 -9.4,0 -17.5,1.6 -24.4,4.8 -6.9,3.2 -12.7,7.8 -17.3,13.9 -4.6,6 -8.1,13.5 -10.4,22.3 -2.3,8.8 -3.4,18.8 -3.4,29.9 0,11.1 1.1,21 3.4,29.8 2.3,8.8 5.7,16.1 10.4,22.1 4.6,6 10.4,10.6 17.3,13.8 6.9,3.2 15.1,4.8 24.4,4.8 z m 158.4,-164.3 0,119.5 c 0,14.2 3.3,25.2 9.8,32.9 6.5,7.8 16.4,11.7 29.6,11.7 9.6,0 18.7,-2.3 27.2,-6.8 8.5,-4.6 16.3,-10.9 23.5,-19.1 l 0,-138.2 32.9,0 0,187.4 -19.6,0 c -4.7,0 -7.6,-2.3 -8.9,-6.8 l -2.6,-20.2 c -8.1,9 -17.3,16.3 -27.4,21.7 -10.1,5.5 -21.7,8.2 -34.8,8.2 -10.2,0 -19.3,-1.7 -27.1,-5.1 -7.8,-3.4 -14.4,-8.2 -19.7,-14.3 -5.3,-6.2 -9.3,-13.6 -11.9,-22.4 -2.7,-8.8 -4,-18.4 -4,-29 l 0,-119.5 33,0 z m 234,190.4 c -14.8,0 -26.2,-4.1 -34.1,-12.4 -8,-8.3 -11.9,-20.2 -11.9,-35.7 l 0,-114.7 -22.6,0 c -2,0 -3.6,-0.6 -5,-1.8 -1.4,-1.2 -2,-3 -2,-5.5 l 0,-13.1 30.7,-3.9 7.6,-57.9 c 0.2,-1.9 1,-3.4 2.4,-4.5 1.4,-1.2 3.1,-1.8 5.2,-1.8 l 16.6,0 0,64.6 53.7,0 0,23.9 -53.7,0 0,112.5 c 0,7.9 1.9,13.8 5.7,17.6 3.8,3.8 8.8,5.7 14.8,5.7 3.5,0 6.4,-0.5 9,-1.4 2.5,-0.9 4.7,-1.9 6.6,-3.1 1.9,-1.1 3.4,-2.1 4.7,-3.1 1.3,-0.9 2.4,-1.4 3.4,-1.4 1.7,0 3.3,1 4.6,3.1 l 9.6,15.7 c -5.7,5.3 -12.5,9.5 -20.5,12.5 -8,3.2 -16.3,4.7 -24.8,4.7 z m 57.5,-190.4 27,0 c 2.6,0 4.7,0.7 6.5,2 1.7,1.4 3,3 3.7,4.8 l 47.5,120.6 c 1.7,4.4 3.1,8.9 4.1,13.3 1,4.4 1.9,8.8 2.8,13.1 1,-4.3 2,-8.7 3.1,-13.1 1.1,-4.4 2.5,-8.9 4.3,-13.3 l 48.1,-120.6 c 0.7,-2 1.9,-3.6 3.6,-4.9 1.7,-1.3 3.7,-1.9 6.2,-1.9 l 25.7,0 -76.4,187.5 -29.8,0 -76.4,-187.5 z m 249.8,0 0,187.4 -32.9,0 0,-187.4 32.9,0 z m 133.9,-2.9 c 13.7,0 26.1,2.3 37.1,6.8 11,4.6 20.4,11 28.1,19.4 7.7,8.4 13.6,18.5 17.8,30.4 4.1,11.9 6.2,25.2 6.2,39.9 0,14.8 -2.1,28.1 -6.2,40 -4.1,11.8 -10.1,22 -17.8,30.3 -7.7,8.4 -17.1,14.8 -28.1,19.3 -11,4.5 -23.4,6.8 -37.1,6.8 -13.7,0 -26.1,-2.3 -37.1,-6.8 -11,-4.5 -20.4,-10.9 -28.2,-19.3 -7.8,-8.4 -13.8,-18.5 -17.9,-30.3 -4.2,-11.8 -6.3,-25.2 -6.3,-40 0,-14.7 2.1,-28 6.3,-39.9 4.2,-11.9 10.2,-22 17.9,-30.4 7.8,-8.4 17.2,-14.9 28.2,-19.4 11.1,-4.5 23.4,-6.8 37.1,-6.8 z m 0,167.2 c 18.5,0 32.3,-6.2 41.4,-18.6 9.1,-12.4 13.7,-29.7 13.7,-51.9 0,-22.3 -4.6,-39.7 -13.7,-52.2 -9.1,-12.5 -22.9,-18.7 -41.4,-18.7 -9.4,0 -17.5,1.6 -24.4,4.8 -6.9,3.2 -12.7,7.8 -17.3,13.9 -4.6,6 -8.1,13.5 -10.4,22.3 -2.3,8.8 -3.4,18.8 -3.4,29.9 0,11.1 1.1,21 3.4,29.8 2.3,8.8 5.7,16.1 10.4,22.1 4.6,6 10.4,10.6 17.3,13.8 6.9,3.2 15.1,4.8 24.4,4.8 z"
         id="path9"
         inkscape:connector-curvature="0"
         style="fill:#ffffff" />
      <path
         class="st0"
         d="m 822.1,122.9 207.2,0 0,27.5 -207.2,0 z"
         id="path11"
         inkscape:connector-curvature="0"
         style="fill:#ffffff" />
    </g>
  </g>
</svg>
